<svg xmlns="http://www.w3.org/2000/svg" width="246" height="93"><g fill="none" fill-rule="evenodd"><path fill="#000" d="M44.28 10.11c.63 0 .63 0 1.03.72s.4.72.4 2.13c0 2.1 0 2.1-1.29 5.14-1.29 3.03-1.29 3.03-3.78 6.01-2.5 2.98-2.5 2.98-4.97 5.38-2.47 2.4-2.47 2.4-4.24 3.34-1.76.94-1.76.94-3.5.94-2.23 0-2.23 0-2.23-1.28 0-.53 0-.53.47-.84.47-.3.47-.3 1-.3.4 0 .4 0 1.27.22a4.7 4.7 0 001.84.32c1.06 0 1.06 0 2.07-.59 1-.59 1-.59 2.5-2.04 1.48-1.45 1.48-1.45 2.08-2.56.6-1.12.6-1.12 1.06-3.93.47-2.81.47-2.81.47-6.05 0-2.46 0-2.46-.46-3.8-.46-1.33-.46-1.33-1.13-1.33-1.28 0-1.28 0-1.58 3.29h-.74l.04-.33c.23-2.25.23-2.25 1.06-3.3.9-1.14.9-1.14 1.91-1.14 1.3 0 1.3 0 2.08 1.6.79 1.58.79 1.58.79 4.83 0 4.24 0 4.24-.97 7.76 1.72-1.88 1.72-1.88 3.37-4.78 1.64-2.9 1.64-2.9 1.64-4.94 0-.97 0-.97-.56-1.92-.57-.93-.57-.93-.57-1.4 0-.46 0-.46.28-.8.27-.35.27-.35.66-.35zm36.17 0c.99 0 .99 0 1.5.63.5.62.5.62.5 1.55 0 1.9 0 1.9-1.9 3.65s-1.9 1.75-5.69 3.36c-.5 1.53-.5 1.53-.5 2.9 0 1.13 0 1.13.45 1.7.44.56.44.56 1.3.56 2.4 0 2.4 0 4.24-3.94h.84l-.15.31c-2.2 4.66-2.2 4.66-5.58 4.66-1.44 0-1.44 0-2.35-1-.9-1.02-.9-1.02-.9-2.74 0-2.18 0-2.18 1.17-4.92 1.16-2.75 1.16-2.75 3.32-4.73 2.15-1.99 2.15-1.99 3.75-1.99zm158.36.07c1.25 0 1.25 0 2.14.63.89.64.89.64.89 1.36 0 .93 0 .93-.78.93-.58 0-.58 0-.84-1.04-.28-1.14-.28-1.14-1.53-1.14-1 0-1 0-1.74.54-.74.55-.74.55-.74 1.43 0 1.2 0 1.2 1.18 3.29 1.1 1.9 1.1 1.9 1.48 2.9.38 1 .38 1 .38 2.05 0 1.64 0 1.64-1.25 3-1.26 1.36-1.26 1.36-3.7 1.36-1.82 0-1.82 0-2.72-.8-.9-.8-.9-.8-.9-1.71 0-.5 0-.5.27-.85s.27-.35.7-.35c.94 0 .94 0 .94 1 0 .23 0 .23-.1.66-.08.19-.08.19-.08.3 0 .42 0 .42.55.72.54.31.54.31 1.3.31 1.18 0 1.18 0 2.14-.75.97-.74.97-.74.97-2.06 0-1.14 0-1.14-1.35-3.6-1.58-2.85-1.58-2.85-1.58-4.17 0-1.69 0-1.69 1.33-2.85 1.34-1.16 1.34-1.16 3.04-1.16zm-10.23-.07c.99 0 .99 0 1.5.63.5.62.5.62.5 1.55 0 1.9 0 1.9-1.9 3.65s-1.9 1.75-5.69 3.36c-.49 1.53-.49 1.53-.49 2.9 0 1.13 0 1.13.44 1.7.44.56.44.56 1.3.56 2.4 0 2.4 0 4.24-3.94h.84l-.15.31c-2.2 4.66-2.2 4.66-5.58 4.66-1.44 0-1.44 0-2.35-1-.9-1.02-.9-1.02-.9-2.74 0-2.18 0-2.18 1.17-4.92 1.17-2.75 1.17-2.75 3.32-4.73 2.15-1.99 2.15-1.99 3.75-1.99zm-12.27 0c.83 0 .83 0 1.36.56.52.57.52.57.52 1.48 0 .93 0 .93-.93 3.41l-1.69 4.57-.1.29c-.83 2.23-.83 2.23-.83 2.82 0 .51 0 .51.2.77.2.25.2.25.6.25 1.3 0 1.3 0 3.05-3.11h.85l-.2.37c-.78 1.48-.78 1.48-1.96 2.65-1.32 1.32-1.32 1.32-2.56 1.32-.82 0-.82 0-1.45-.59-.62-.59-.62-.59-.62-1.73 0-.93 0-.93.99-3.57l2.02-5.36.09-.24c.61-1.67.61-1.67.61-2.04 0-.35 0-.35-.17-.53-.16-.18-.16-.18-.5-.18-.68 0-.68 0-1.62 1.07-.94 1.06-.94 1.06-1.33 1.92h-.85l.2-.37c.9-1.65.9-1.65 2.01-2.65 1.24-1.1 1.24-1.1 2.31-1.1zm-7.31 0c.53 0 .53 0 .86.62.34.61.34.61.34 1.67 0 2.33 0 2.33-1.02 5.74-1.02 3.4-1.02 3.4-2.94 5.37-1.92 1.98-1.92 1.98-4 1.98-1.4 0-1.4 0-2.23-.86-.84-.86-.84-.86-.84-2.39 0-1.58 0-1.58.87-3.52.86-1.93.86-1.93 2.9-4.9.31-.46.31-.46.58-.93.22-.39.22-.39.31-.51-.7.44-.7.44-1.26.44-.58 0-.58 0-1-.42-.46-.44-.46-.44-.83-.44-.58 0-.58 0-.92.88h-.72l.08-.25c.82-2.48.82-2.48 2.2-2.48.76 0 .76 0 1.52 1.28.28.5.28.5.69.5.42 0 .42 0 .65-.72.33-1.06.33-1.06.86-1.06.4 0 .4 0 .4.39 0 .37 0 .37-.54 1.39-2.11 3.93-2.11 3.93-2.91 6.09-.8 2.15-.8 2.15-.8 3.86 0 1.23 0 1.23.53 1.9.52.68.52.68 1.2.68 2.06 0 2.06 0 4-3.2 1.95-3.22 1.95-3.22 1.95-6.24 0-1.2 0-1.2-.51-2.39-.32-.74-.32-.74-.32-1.28 0-1.2 0-1.2.9-1.2zm-68.36 0c.97 0 .97 0 1.69.64s.72.64.72 1.88c0 .79 0 .79-.72 2.95l-1.88 5.6-.09.25c-.67 2.04-.67 2.04-.67 2.29 0 .33 0 .33.17.5.16.16.16.16.48.16.6 0 .6 0 1.28-.67.69-.68.69-.68 1.46-2.01h.9l-.2.33c-.96 1.65-.96 1.65-1.95 2.51-1.1.95-1.1.95-2.25.95-.79 0-.79 0-1.36-.48-.57-.48-.57-.48-.57-1.43 0-.8 0-.8.8-3.13l1.89-5.36.1-.27c.66-1.97.66-1.97.66-2.58 0-.58 0-.58-.26-.86-.25-.28-.25-.28-.78-.28-1.34 0-1.34 0-3.5 3.13-2.14 3.14-2.14 3.14-3.7 8.22l-.85 2.81h-2.15l3.1-9.98.08-.27c.76-2.51.76-2.51.76-2.9 0-.3 0-.3-.1-.43-.11-.14-.11-.14-.34-.14-1.04 0-1.04 0-2.46 2.56h-.8l.15-.29c2.11-3.7 2.11-3.7 4-3.7.7 0 .7 0 1.04.41.34.42.34.42.34 1.26 0 1.51 0 1.51-1.18 4.68 3.18-6.35 3.18-6.35 6.19-6.35zm-48.66 0c.92 0 .92 0 1.45.44.54.44.54.44.71 1.32l.44-1.5h2.11l-3.13 10.3-.07.26c-.61 2-.61 2-.61 2.45 0 .35 0 .35.16.54.16.18.16.18.47.18 1.21 0 1.21 0 2.8-2.77h.73l-.15.34c-.67 1.38-.67 1.38-1.8 2.53-1.28 1.3-1.28 1.3-2.35 1.3-.83 0-.83 0-1.27-.62-.44-.62-.44-.62-.44-1.51 0-.73 0-.73.35-1.89-.79 1.36-.79 1.36-2.29 2.69-1.5 1.32-1.5 1.32-2.82 1.32-1.23 0-1.23 0-2.12-1.04-.89-1.05-.89-1.05-.89-2.82 0-2.4 0-2.4 1.37-5.13 1.38-2.73 1.38-2.73 3.58-4.56 2.2-1.83 2.2-1.83 3.77-1.83zm101.59.09c1.56 0 1.56 0 2.57 1.33 1.01 1.32 1.01 1.32 1.01 3.6 0 2.73 0 2.73-1.12 5.2-1.13 2.46-1.13 2.46-2.82 3.76-1.7 1.31-1.7 1.31-3.34 1.31-1.45 0-1.45 0-2.55-1.12-1.1-1.13-1.1-1.13-1.1-3.9 0-2.11 0-2.11.98-4.6.99-2.49.99-2.49 2.82-4.03 1.82-1.55 1.82-1.55 3.55-1.55zm-85.82-.09c.62 0 .62 0 .98.39.37.38.37.38.37.93 0 .53 0 .53-.3.86-.31.34-.31.34-.73.34-.48 0-.48 0-.97-.59-.2-.22-.2-.22-.39-.22-.88 0-.88 0-2.7 4.22-1.83 4.23-1.83 4.23-2.96 7.96l-.38 1.26h-2.11l2.8-9.31.08-.31c.7-2.42.7-2.42.7-3.31 0-.51 0-.51-.13-.76s-.13-.25-.4-.25c-.57 0-.57 0-1.44 1.25-.88 1.25-.88 1.25-1.24 2.29h-.78l.17-.43c.7-1.7.7-1.7 1.69-2.93 1.11-1.39 1.11-1.39 2.2-1.39.76 0 .76 0 1.13.6.37.61.37.61.37 1.84 0 1.53 0 1.53-.8 4.36.11-.17.11-.17.59-1.26 1.3-2.94 1.3-2.94 2.28-4.24.99-1.3.99-1.3 1.97-1.3zM77.45.74c1.03 0 1.03 0 1.7.58.65.58.65.58.65 1.46 0 .5 0 .5-.3.93-.31.44-.31.44-.84.44-1.07 0-1.07 0-1.1-1.5 0-.87 0-.87-.8-.87-.95 0-.95 0-2.65 1.9s-1.7 1.9-3.89 5.75c-2.2 3.86-2.2 3.86-3.58 8.12-1.38 4.25-1.38 4.25-1.38 4.95 0 .92 0 .92.77 1.3.76.4.76.4 1.7.4h1.03l-.24.8H57.48l.24-.8h1.06l.26-.01c1.78-.07 1.78-.07 2.59-1.1.86-1.1.86-1.1 2.22-7.01 1.36-5.92 1.36-5.92 1.36-9.62 0-2.1 0-2.1-.3-3.13-.31-1.04-.31-1.04-.95-1.04-.86 0-.86 0-2.18 2.1-1.32 2.08-1.32 2.08-1.95 3.9h-.79l.18-.47c1.28-3.19 1.28-3.19 2.8-5.07 1.63-2 1.63-2 3.09-2 1.2 0 1.2 0 2.02 1.48.82 1.48.82 1.48.82 4.1 0 3.48 0 3.48-1.05 8.18l.33-.76c2.01-4.5 2.01-4.5 4.51-8.18l.42-.6C75.13.73 75.13.73 77.45.73zm88.22.42l2.51 20.17 13.77-20.17h5.96l-.25.81h-.27c-1.57.03-1.57.03-2.11.3-.6.3-.6.3-.85.85-.27.56-.27.56-.7 2.47l-3.68 14.84-.06.24c-.35 1.39-.35 1.39-.35 1.76 0 .92 0 .92.78 1.34.77.42.77.42 1.77.42h.55l-.25.81h-9.96l.24-.8h.42l.27-.01c.94-.05.94-.05 1.6-.38.77-.37.77-.37 1.06-.93.29-.55.29-.55.76-2.42l4.17-16.64L166.5 25h-.85L163.3 5.6l-4.73 12.37-.12.3c-1.11 2.95-1.11 2.95-1.11 3.7 0 1.24 0 1.24.7 1.71.7.48.7.48 2.32.51l-.24.81h-8.02l.25-.8.28-.02c1.12-.09 1.12-.09 1.95-.62.93-.6.93-.6 1.51-1.7.58-1.11.58-1.11 1.72-4.1l4.52-11.7.1-.26c.67-1.8.67-1.8.67-2.35 0-.72 0-.72-.42-1.1-.42-.38-.42-.38-1.77-.38h-1.02l.23-.8h5.55zm-33.19 0l-.24.81h-.5l-.27.01c-.68.04-.68.04-1.26.3-.68.29-.68.29-.97.82-.3.52-.3.52-.96 2.72l-4.45 14.61-.07.23c-.44 1.47-.44 1.47-.44 1.88 0 .86 0 .86.75 1.26s.75.4 1.72.4h.68l-.25.8h-10.05l.25-.8h.54l.27-.01c.92-.05.92-.05 1.58-.4.75-.39.75-.39 1.02-.9.28-.53.28-.53.8-2.28l4.6-15.17.06-.23c.48-1.56.48-1.56.48-1.97 0-1.27 0-1.27-2.27-1.27h-.63l.24-.8h9.37zm-118.42 0l2.51 20.17L30.34 1.16h5.95l-.24.81h-.27c-1.57.03-1.57.03-2.11.3-.6.3-.6.3-.86.85-.26.56-.26.56-.7 2.47l-3.67 14.84-.06.24c-.35 1.39-.35 1.39-.35 1.76 0 .92 0 .92.78 1.34.77.42.77.42 1.77.42h.55l-.25.81h-9.97l.25-.8h.42l.27-.01c.94-.05.94-.05 1.6-.38.77-.37.77-.37 1.06-.93.29-.55.29-.55.76-2.42l4.17-16.64L14.88 25h-.84L11.7 5.6 6.96 17.96l-.12.3c-1.11 2.95-1.11 2.95-1.11 3.7 0 1.24 0 1.24.7 1.71.7.48.7.48 2.32.51L8.5 25H.5l.24-.8.29-.02c1.12-.09 1.12-.09 1.95-.62.93-.6.93-.6 1.5-1.7.59-1.11.59-1.11 1.73-4.1l4.52-11.7.1-.26c.67-1.8.67-1.8.67-2.35 0-.72 0-.72-.42-1.1-.42-.38-.42-.38-1.78-.38H8.28l.22-.8h5.56zm179.42 9.81c-2.2 0-2.2 0-3.79 4.14-1.59 4.14-1.59 4.14-1.59 7.29 0 .95 0 .95.5 1.62.48.66.48.66 1.35.66 2.35 0 2.35 0 3.87-4.46 1.52-4.47 1.52-4.47 1.52-6.82 0-1.21 0-1.21-.46-1.82-.47-.6-.47-.6-1.4-.6zm-101.34.04C90 11 90 11 87.7 15.24c-2.3 4.24-2.3 4.24-2.3 6.91 0 1.16 0 1.16.35 1.75.35.59.35.59 1.06.59 1.16 0 1.16 0 2.78-1.7 1.63-1.71 1.63-1.71 2.82-5.23 1.2-3.51 1.2-3.51 1.2-4.78 0-.74 0-.74-.38-1.25-.38-.52-.38-.52-1.08-.52zm135.91.02c-1.05 0-1.05 0-2.48 2.04-1.44 2.05-1.44 2.05-2.31 5.34 2.26-1.02 2.26-1.02 4.07-2.81 1.81-1.8 1.81-1.8 1.81-3.26 0-.66 0-.66-.27-.99-.27-.32-.27-.32-.82-.32zm-148.13 0c-1.05 0-1.05 0-2.48 2.04-1.44 2.05-1.44 2.05-2.31 5.34 2.26-1.02 2.26-1.02 4.07-2.81 1.81-1.8 1.81-1.8 1.81-3.26 0-.66 0-.66-.27-.99-.27-.32-.27-.32-.82-.32zM218.72.83c.63 0 .63 0 1.08.45.45.45.45.45.45 1.08 0 .63 0 .63-.45 1.09-.45.46-.45.46-1.08.46-.65 0-.65 0-1.09-.47-.44-.47-.44-.47-.44-1.08 0-.63 0-.63.45-1.08.45-.45.45-.45 1.08-.45z"/><path fill="#000" stroke="#000" d="M83.08 34.08c4.32 0 4.32 0 7.78 1.26s3.46 1.26 5.9 3.5c2.44 2.24 2.44 2.24 3.74 5.34 1.3 3.1 1.3 3.1 1.3 6.82 0 3.2 0 3.2-.9 5.92-.9 2.72-.9 2.72-2.46 5.18-1.56 2.46-1.56 2.46-3.62 4.76s-2.06 2.3-4.38 4.66h0L79.04 83.2l.73-.2c1.83-.5 1.83-.5 3.61-.82 2.14-.38 2.14-.38 4.02-.38h11.16c1.8.08 1.8.08 2.88 1.1 1.16 1.1 1.16 1.1 1.16 2.9h0V93H61.64v-4.3c.06-1.03.06-1.03.48-2.18.48-1.32.48-1.32 1.68-2.4h0L80.6 67.2l.47-.48c1.87-1.9 1.87-1.9 3.29-3.64 1.6-1.96 1.6-1.96 2.64-3.86s1.04-1.9 1.56-3.8.52-1.9.52-4.02c0-3.48 0-3.48-1.66-5.34-1.66-1.86-1.66-1.86-5.06-1.86-1.4 0-1.4 0-2.56.4-1.16.4-1.16.4-2.08 1.08-.92.68-.92.68-1.58 1.6s-.66.92-1.06 2c-.64 1.8-.64 1.8-1.62 2.6-.98.8-.98.8-2.66.8-.4 0-.4 0-.86-.04-.46-.04-.46-.04-.94-.12h0l-6.56-1.16.1-.58c.66-4 .66-4 2.36-7.02 1.82-3.24 1.82-3.24 4.52-5.4 2.7-2.16 2.7-2.16 6.18-3.22 3.48-1.06 3.48-1.06 7.48-1.06z"/><path fill="#000" d="M174.08 34.08c4.32 0 4.32 0 7.78 1.26s3.46 1.26 5.9 3.5c2.44 2.24 2.44 2.24 3.74 5.34 1.3 3.1 1.3 3.1 1.3 6.82 0 3.2 0 3.2-.9 5.92-.9 2.72-.9 2.72-2.46 5.18-1.56 2.46-1.56 2.46-3.62 4.76s-2.06 2.3-4.38 4.66l-11.4 11.68.73-.2c1.83-.5 1.83-.5 3.61-.82 2.14-.38 2.14-.38 4.02-.38h11.16c1.8.08 1.8.08 2.88 1.1 1.16 1.1 1.16 1.1 1.16 2.9V93h-40.96v-4.3c.06-1.03.06-1.03.48-2.18.48-1.32.48-1.32 1.68-2.4l16.8-16.92.47-.48c1.87-1.9 1.87-1.9 3.29-3.64 1.6-1.96 1.6-1.96 2.64-3.86s1.04-1.9 1.56-3.8.52-1.9.52-4.02c0-3.48 0-3.48-1.66-5.34-1.66-1.86-1.66-1.86-5.06-1.86-1.4 0-1.4 0-2.56.4-1.16.4-1.16.4-2.08 1.08-.92.68-.92.68-1.58 1.6s-.66.92-1.06 2c-.64 1.8-.64 1.8-1.62 2.6-.98.8-.98.8-2.66.8-.4 0-.4 0-.86-.04-.46-.04-.46-.04-.94-.12l-6.56-1.16.1-.58c.66-4 .66-4 2.36-7.02 1.82-3.24 1.82-3.24 4.52-5.4 2.7-2.16 2.7-2.16 6.18-3.22 3.48-1.06 3.48-1.06 7.48-1.06z"/><g transform="translate(101 35)"><circle cx="27" cy="27" r="25" stroke="#000" stroke-width="4"/><path fill="#000" d="M27 5.2a21.8 21.8 0 110 43.6 21.8 21.8 0 010-43.6zm-7.79 28.03a4.67 4.67 0 100 9.35 4.67 4.67 0 000-9.35zm15.58 0a4.67 4.67 0 100 9.35 4.67 4.67 0 000-9.35zM27 22.33a4.67 4.67 0 100 9.34 4.67 4.67 0 000-9.34zm-12.46-3.9a4.67 4.67 0 100 9.35 4.67 4.67 0 000-9.35zm24.92-.78a4.67 4.67 0 100 9.35 4.67 4.67 0 000-9.35zM27 9.1a4.67 4.67 0 100 9.34 4.67 4.67 0 000-9.34z"/></g><g transform="translate(192 35)"><circle cx="27" cy="27" r="25" stroke="#000" stroke-width="4"/><path fill="#000" d="M27 5.2a21.8 21.8 0 110 43.6 21.8 21.8 0 010-43.6zm-7.79 28.03a4.67 4.67 0 100 9.35 4.67 4.67 0 000-9.35zm15.58 0a4.67 4.67 0 100 9.35 4.67 4.67 0 000-9.35zM27 22.33a4.67 4.67 0 100 9.34 4.67 4.67 0 000-9.34zm-12.46-3.9a4.67 4.67 0 100 9.35 4.67 4.67 0 000-9.35zm24.92-.78a4.67 4.67 0 100 9.35 4.67 4.67 0 000-9.35zM27 9.1a4.67 4.67 0 100 9.34 4.67 4.67 0 000-9.34z"/></g><path fill="#000" d="M75 81h171v12H75z"/></g></svg>