<svg xmlns="http://www.w3.org/2000/svg" width="185" height="61"><g fill="none" fill-rule="evenodd"><path fill="#000" d="M22.08 1.08c4.32 0 4.32 0 7.78 1.26s3.46 1.26 5.9 3.5c2.44 2.24 2.44 2.24 3.74 5.34 1.3 3.1 1.3 3.1 1.3 6.82 0 3.2 0 3.2-.9 5.92-.9 2.72-.9 2.72-2.46 5.18-1.56 2.46-1.56 2.46-3.62 4.76s-2.06 2.3-4.38 4.66L18.04 50.2l.73-.2c1.83-.5 1.83-.5 3.61-.82 2.14-.38 2.14-.38 4.02-.38h11.16c1.8.08 1.8.08 2.88 1.1C41.6 51 41.6 51 41.6 52.8V60H.64v-4.3c.06-1.03.06-1.03.48-2.18.48-1.32.48-1.32 1.68-2.4L19.6 34.2l.47-.48c1.87-1.9 1.87-1.9 3.29-3.64 1.6-1.96 1.6-1.96 2.64-3.86s1.04-1.9 1.56-3.8.52-1.9.52-4.02c0-3.48 0-3.48-1.66-5.34-1.66-1.86-1.66-1.86-5.06-1.86-1.4 0-1.4 0-2.56.4-1.16.4-1.16.4-2.08 1.08-.92.68-.92.68-1.58 1.6s-.66.92-1.06 2c-.64 1.8-.64 1.8-1.62 2.6-.98.8-.98.8-2.66.8-.4 0-.4 0-.86-.04-.46-.04-.46-.04-.94-.12l-6.56-1.16.1-.58c.66-4 .66-4 2.36-7.02 1.82-3.24 1.82-3.24 4.52-5.4 2.7-2.16 2.7-2.16 6.18-3.22 3.48-1.06 3.48-1.06 7.48-1.06zM113.08 1.08c4.32 0 4.32 0 7.78 1.26s3.46 1.26 5.9 3.5c2.44 2.24 2.44 2.24 3.74 5.34 1.3 3.1 1.3 3.1 1.3 6.82 0 3.2 0 3.2-.9 5.92-.9 2.72-.9 2.72-2.46 5.18-1.56 2.46-1.56 2.46-3.62 4.76s-2.06 2.3-4.38 4.66l-11.4 11.68.73-.2c1.83-.5 1.83-.5 3.61-.82 2.14-.38 2.14-.38 4.02-.38h11.16c1.8.08 1.8.08 2.88 1.1 1.16 1.1 1.16 1.1 1.16 2.9V60H91.64v-4.3c.06-1.03.06-1.03.48-2.18.48-1.32.48-1.32 1.68-2.4l16.8-16.92.47-.48c1.87-1.9 1.87-1.9 3.29-3.64 1.6-1.96 1.6-1.96 2.64-3.86s1.04-1.9 1.56-3.8.52-1.9.52-4.02c0-3.48 0-3.48-1.66-5.34-1.66-1.86-1.66-1.86-5.06-1.86-1.4 0-1.4 0-2.56.4-1.16.4-1.16.4-2.08 1.08-.92.68-.92.68-1.58 1.6s-.66.92-1.06 2c-.64 1.8-.64 1.8-1.62 2.6-.98.8-.98.8-2.66.8-.4 0-.4 0-.86-.04-.46-.04-.46-.04-.94-.12l-6.56-1.16.1-.58c.66-4 .66-4 2.36-7.02 1.82-3.24 1.82-3.24 4.52-5.4 2.7-2.16 2.7-2.16 6.18-3.22 3.48-1.06 3.48-1.06 7.48-1.06z"/><g transform="translate(40 2)"><circle cx="27" cy="27" r="25" stroke="#000" stroke-width="4"/><path fill="#000" d="M27 5.2a21.8 21.8 0 110 43.6 21.8 21.8 0 010-43.6zm-7.79 28.03a4.67 4.67 0 100 9.35 4.67 4.67 0 000-9.35zm15.58 0a4.67 4.67 0 100 9.35 4.67 4.67 0 000-9.35zM27 22.33a4.67 4.67 0 100 9.34 4.67 4.67 0 000-9.34zm-12.46-3.9a4.67 4.67 0 100 9.35 4.67 4.67 0 000-9.35zm24.92-.78a4.67 4.67 0 100 9.35 4.67 4.67 0 000-9.35zM27 9.1a4.67 4.67 0 100 9.34 4.67 4.67 0 000-9.34z"/></g><g transform="translate(131 2)"><circle cx="27" cy="27" r="25" stroke="#000" stroke-width="4"/><path fill="#000" d="M27 5.2a21.8 21.8 0 110 43.6 21.8 21.8 0 010-43.6zm-7.79 28.03a4.67 4.67 0 100 9.35 4.67 4.67 0 000-9.35zm15.58 0a4.67 4.67 0 100 9.35 4.67 4.67 0 000-9.35zM27 22.33a4.67 4.67 0 100 9.34 4.67 4.67 0 000-9.34zm-12.46-3.9a4.67 4.67 0 100 9.35 4.67 4.67 0 000-9.35zm24.92-.78a4.67 4.67 0 100 9.35 4.67 4.67 0 000-9.35zM27 9.1a4.67 4.67 0 100 9.34 4.67 4.67 0 000-9.34z"/></g><path fill="#000" d="M14 48h171v12H14z"/></g></svg>