<svg xmlns="http://www.w3.org/2000/svg" width="246" height="93"><g fill="none" fill-rule="evenodd"><text fill="#000" font-family="Baskerville-Italic, Baskerville" font-size="36" font-style="italic"><tspan x="2" y="25">My Year In Movies</tspan></text><text fill="#000" font-family="Lato-Black, Lato" font-size="80" font-weight="700" transform="translate(59 14)"><tspan x="0" y="79">2</tspan></text><text fill="#000" font-family="Lato-Black, Lato" font-size="80" font-weight="700" transform="translate(59 14)"><tspan x="91" y="79">2</tspan></text><g transform="translate(101 35)"><circle cx="27" cy="27" r="25" stroke="#000" stroke-width="4"/><path fill="#000" d="M27 5.2a21.8 21.8 0 110 43.6 21.8 21.8 0 010-43.6zm-7.79 28.03a4.67 4.67 0 100 9.35 4.67 4.67 0 000-9.35zm15.58 0a4.67 4.67 0 100 9.35 4.67 4.67 0 000-9.35zM27 22.33a4.67 4.67 0 100 9.34 4.67 4.67 0 000-9.34zm-12.46-3.9a4.67 4.67 0 100 9.35 4.67 4.67 0 000-9.35zm24.92-.78a4.67 4.67 0 100 9.35 4.67 4.67 0 000-9.35zM27 9.1a4.67 4.67 0 100 9.34 4.67 4.67 0 000-9.34z"/></g><g transform="translate(192 35)"><circle cx="27" cy="27" r="25" stroke="#000" stroke-width="4"/><path fill="#000" d="M27 5.2a21.8 21.8 0 110 43.6 21.8 21.8 0 010-43.6zm-7.79 28.03a4.67 4.67 0 100 9.35 4.67 4.67 0 000-9.35zm15.58 0a4.67 4.67 0 100 9.35 4.67 4.67 0 000-9.35zM27 22.33a4.67 4.67 0 100 9.34 4.67 4.67 0 000-9.34zm-12.46-3.9a4.67 4.67 0 100 9.35 4.67 4.67 0 000-9.35zm24.92-.78a4.67 4.67 0 100 9.35 4.67 4.67 0 000-9.35zM27 9.1a4.67 4.67 0 100 9.34 4.67 4.67 0 000-9.34z"/></g><path fill="#000" d="M75 82h171v11H75z"/></g></svg>