<?xml version="1.0" encoding="UTF-8"?>
<svg width="246px" height="93px" viewBox="0 0 246 93" version="1.1" xmlns="http://www.w3.org/2000/svg" xmlns:xlink="http://www.w3.org/1999/xlink">
    <!-- Generator: Sketch 63.1 (92452) - https://sketch.com -->
    <title>Custom Preset</title>
    <desc>Created with Sketch.</desc>
    <g id="Custom-Preset" stroke="none" stroke-width="1" fill="none" fill-rule="evenodd">
        <text id="My-Year-In-Movies" font-family="Baskerville-Italic, Baskerville" font-size="36" font-style="italic" font-weight="normal" fill="#000000">
            <tspan x="2" y="25">My Year In Movies</tspan>
        </text>
        <g id="Group-3" transform="translate(59.000000, 14.000000)">
            <text id="2" font-family="Lato-Black, Lato" font-size="80" font-weight="700" fill="#000000">
                <tspan x="0" y="79">2</tspan>
            </text>
            <text id="2-copy" font-family="Lato-Black, Lato" font-size="80" font-weight="700" fill="#000000">
                <tspan x="91" y="79">2</tspan>
            </text>
            <g id="Group-2" transform="translate(42.000000, 21.000000)">
                <circle id="Oval" stroke="#000000" stroke-width="4" cx="27" cy="27" r="25"></circle>
                <path d="M27,5.19230769 C39.0440559,5.19230769 48.8076923,14.9559441 48.8076923,27 C48.8076923,39.0440559 39.0440559,48.8076923 27,48.8076923 C14.9559441,48.8076923 5.19230769,39.0440559 5.19230769,27 C5.19230769,14.9559441 14.9559441,5.19230769 27,5.19230769 Z M19.2115385,33.2307692 C16.6306693,33.2307692 14.5384615,35.322977 14.5384615,37.9038462 C14.5384615,40.4847153 16.6306693,42.5769231 19.2115385,42.5769231 C21.7924076,42.5769231 23.8846154,40.4847153 23.8846154,37.9038462 C23.8846154,35.322977 21.7924076,33.2307692 19.2115385,33.2307692 Z M34.7884615,33.2307692 C32.2075924,33.2307692 30.1153846,35.322977 30.1153846,37.9038462 C30.1153846,40.4847153 32.2075924,42.5769231 34.7884615,42.5769231 C37.3693307,42.5769231 39.4615385,40.4847153 39.4615385,37.9038462 C39.4615385,35.322977 37.3693307,33.2307692 34.7884615,33.2307692 Z M27,22.3269231 C24.4191309,22.3269231 22.3269231,24.4191309 22.3269231,27 C22.3269231,29.5808691 24.4191309,31.6730769 27,31.6730769 C29.5808691,31.6730769 31.6730769,29.5808691 31.6730769,27 C31.6730769,24.4191309 29.5808691,22.3269231 27,22.3269231 Z M14.5384615,18.4326923 C11.9575924,18.4326923 9.86538462,20.5249001 9.86538462,23.1057692 C9.86538462,25.6866384 11.9575924,27.7788462 14.5384615,27.7788462 C17.1193307,27.7788462 19.2115385,25.6866384 19.2115385,23.1057692 C19.2115385,20.5249001 17.1193307,18.4326923 14.5384615,18.4326923 Z M39.4615385,17.6538462 C36.8806693,17.6538462 34.7884615,19.746054 34.7884615,22.3269231 C34.7884615,24.9077922 36.8806693,27 39.4615385,27 C42.0424076,27 44.1346154,24.9077922 44.1346154,22.3269231 C44.1346154,19.746054 42.0424076,17.6538462 39.4615385,17.6538462 Z M27,9.08653846 C24.4191309,9.08653846 22.3269231,11.1787463 22.3269231,13.7596154 C22.3269231,16.3404845 24.4191309,18.4326923 27,18.4326923 C29.5808691,18.4326923 31.6730769,16.3404845 31.6730769,13.7596154 C31.6730769,11.1787463 29.5808691,9.08653846 27,9.08653846 Z" id="Combined-Shape" fill="#000000"></path>
            </g>
            <g id="Group-2" transform="translate(133.000000, 21.000000)">
                <circle id="Oval" stroke="#000000" stroke-width="4" cx="27" cy="27" r="25"></circle>
                <path d="M27,5.19230769 C39.0440559,5.19230769 48.8076923,14.9559441 48.8076923,27 C48.8076923,39.0440559 39.0440559,48.8076923 27,48.8076923 C14.9559441,48.8076923 5.19230769,39.0440559 5.19230769,27 C5.19230769,14.9559441 14.9559441,5.19230769 27,5.19230769 Z M19.2115385,33.2307692 C16.6306693,33.2307692 14.5384615,35.322977 14.5384615,37.9038462 C14.5384615,40.4847153 16.6306693,42.5769231 19.2115385,42.5769231 C21.7924076,42.5769231 23.8846154,40.4847153 23.8846154,37.9038462 C23.8846154,35.322977 21.7924076,33.2307692 19.2115385,33.2307692 Z M34.7884615,33.2307692 C32.2075924,33.2307692 30.1153846,35.322977 30.1153846,37.9038462 C30.1153846,40.4847153 32.2075924,42.5769231 34.7884615,42.5769231 C37.3693307,42.5769231 39.4615385,40.4847153 39.4615385,37.9038462 C39.4615385,35.322977 37.3693307,33.2307692 34.7884615,33.2307692 Z M27,22.3269231 C24.4191309,22.3269231 22.3269231,24.4191309 22.3269231,27 C22.3269231,29.5808691 24.4191309,31.6730769 27,31.6730769 C29.5808691,31.6730769 31.6730769,29.5808691 31.6730769,27 C31.6730769,24.4191309 29.5808691,22.3269231 27,22.3269231 Z M14.5384615,18.4326923 C11.9575924,18.4326923 9.86538462,20.5249001 9.86538462,23.1057692 C9.86538462,25.6866384 11.9575924,27.7788462 14.5384615,27.7788462 C17.1193307,27.7788462 19.2115385,25.6866384 19.2115385,23.1057692 C19.2115385,20.5249001 17.1193307,18.4326923 14.5384615,18.4326923 Z M39.4615385,17.6538462 C36.8806693,17.6538462 34.7884615,19.746054 34.7884615,22.3269231 C34.7884615,24.9077922 36.8806693,27 39.4615385,27 C42.0424076,27 44.1346154,24.9077922 44.1346154,22.3269231 C44.1346154,19.746054 42.0424076,17.6538462 39.4615385,17.6538462 Z M27,9.08653846 C24.4191309,9.08653846 22.3269231,11.1787463 22.3269231,13.7596154 C22.3269231,16.3404845 24.4191309,18.4326923 27,18.4326923 C29.5808691,18.4326923 31.6730769,16.3404845 31.6730769,13.7596154 C31.6730769,11.1787463 29.5808691,9.08653846 27,9.08653846 Z" id="Combined-Shape" fill="#000000"></path>
            </g>
            <rect id="Rectangle" fill="#000000" x="16" y="68" width="171" height="11"></rect>
        </g>
    </g>
</svg>